<svg width="1024" height="1024" viewBox="0 0 1024 1024" fill="none" xmlns="http://www.w3.org/2000/svg">
    <rect x="128" y="140" width="768" height="768" rx="174" fill="black" fill-opacity="0.15"/>
    
    <rect x="128" y="128" width="768" height="768" rx="174" fill="url(#silver_bg)" stroke="#D1D1D6" stroke-width="4"/>
    
    <circle cx="512" cy="512" r="300" stroke="url(#blue_accent)" stroke-width="20" stroke-dasharray="2 30" stroke-linecap="round"/>
    
    <g transform="translate(512, 512) rotate(-45) translate(-512, -512)">
        <path d="M380 550H644L670 850C670 861 661 870 650 870H374C363 870 354 861 354 850L380 550Z" fill="black" fill-opacity="0.1" transform="translate(10, 10)"/>
        
        <rect x="492" y="200" width="40" height="380" rx="20" fill="url(#handle_grad)" stroke="#8E8E93" stroke-width="2"/>
        
        <path d="M380 550H644L670 850C670 861 661 870 650 870H374C363 870 354 861 354 850L380 550Z" fill="url(#frosted_glass)" stroke="#007AFF" stroke-width="4" stroke-opacity="0.4"/>
        
        <line x1="430" y1="580" x2="430" y2="840" stroke="#007AFF" stroke-opacity="0.6" stroke-width="8" stroke-linecap="round"/>
        <line x1="512" y1="580" x2="512" y2="840" stroke="#007AFF" stroke-opacity="0.6" stroke-width="8" stroke-linecap="round"/>
        <line x1="594" y1="580" x2="594" y2="840" stroke="#007AFF" stroke-opacity="0.6" stroke-width="8" stroke-linecap="round"/>
    </g>

    <path d="M128 350C128 200 200 128 350 128H724C800 128 896 220 896 350L128 550V350Z" fill="white" fill-opacity="0.3"/>

    <defs>
        <linearGradient id="silver_bg" x1="512" y1="128" x2="512" y2="896" gradientUnits="userSpaceOnUse">
            <stop stop-color="#FFFFFF"/>
            <stop offset="1" stop-color="#D1D1D6"/>
        </linearGradient>
        
        <linearGradient id="blue_accent" x1="512" y1="212" x2="512" y2="812" gradientUnits="userSpaceOnUse">
            <stop stop-color="#007AFF"/>
            <stop offset="1" stop-color="#5AC8FA"/>
        </linearGradient>
        
        <linearGradient id="handle_grad" x1="512" y1="200" x2="512" y2="580" gradientUnits="userSpaceOnUse">
            <stop stop-color="#E5E5EA"/>
            <stop offset="0.5" stop-color="#AEAEB2"/>
            <stop offset="1" stop-color="#8E8E93"/>
        </linearGradient>
        
        <linearGradient id="frosted_glass" x1="512" y1="550" x2="512" y2="870" gradientUnits="userSpaceOnUse">
            <stop stop-color="#FFFFFF" stop-opacity="0.8"/>
            <stop offset="1" stop-color="#007AFF" stop-opacity="0.3"/>
        </linearGradient>
    </defs>
</svg>